<svg version="1.1" xmlns="http://www.w3.org/2000/svg" x="0px" y="0px" viewBox="252.6 412.9 90 16" enable-background="new 252.6 412.9 90 16" xml:space="preserve">
<g>
	<path fill="#F6BA1E" d="M268.7,419.8L268.7,419.8l-4.2,3.1l1.7,5c0,0.1,0,0.2,0,0.2c0,0.4-0.3,0.7-0.7,0.7c-0.2,0-0.3-0.1-0.4-0.1
		l0,0l-4.2-3.1l-4.2,3.1c-0.1,0.1-0.3,0.2-0.5,0.2c-0.4,0-0.7-0.3-0.7-0.7c0-0.1,0-0.2,0-0.2l1.6-5.1l-4.2-3.1
		c-0.1-0.1-0.2-0.4-0.2-0.6c0-0.4,0.3-0.7,0.7-0.7l0,0h5.1l1.6-5c0.2-0.4,0.4-0.6,0.8-0.6c0.3,0,0.6,0.2,0.7,0.5l1.6,5h5.1
		c0.4,0,0.7,0.3,0.7,0.7C269,419.3,268.9,419.7,268.7,419.8L268.7,419.8z"/>
	<path fill="#F6BA1E" d="M287.1,419.8L287.1,419.8l-4.2,3.1l1.6,5.1c0,0.1,0,0.2,0,0.2c0,0.4-0.3,0.7-0.7,0.7
		c-0.2,0-0.3-0.1-0.4-0.1l0,0l-4.2-3.1l-4.2,3.1c-0.1,0.1-0.3,0.1-0.4,0.1c-0.4,0-0.7-0.3-0.7-0.7c0-0.1,0-0.2,0-0.2l1.6-5.1
		l-4.2-3.1c-0.2-0.1-0.3-0.4-0.3-0.6c0-0.4,0.3-0.7,0.7-0.7l0,0h5.1l1.8-5.1c0.1-0.3,0.4-0.5,0.7-0.5c0.3,0,0.6,0.2,0.7,0.5l1.6,5
		h5.1c0.4,0,0.7,0.3,0.7,0.7C287.5,419.3,287.3,419.7,287.1,419.8L287.1,419.8z"/>
	<path fill="#F6BA1E" d="M305.6,419.8L305.6,419.8l-4.2,3.1l1.6,5.1c0,0.1,0,0.2,0,0.2c0,0.4-0.3,0.7-0.7,0.7
		c-0.2,0-0.3-0.1-0.4-0.1l0,0l-4.2-3.1l-4.2,3.1c-0.1,0.1-0.3,0.1-0.4,0.1c-0.4,0-0.7-0.3-0.7-0.7c0-0.1,0-0.2,0-0.2l1.6-5.1
		l-4.2-3.1c-0.2-0.1-0.3-0.4-0.3-0.6c0-0.4,0.3-0.7,0.7-0.7l0,0h5.1l1.6-5c0.2-0.4,0.5-0.6,0.8-0.6s0.6,0.2,0.7,0.5l1.6,5h5.1
		c0.4,0,0.7,0.3,0.7,0.7C305.9,419.3,305.7,419.7,305.6,419.8L305.6,419.8z"/>
	<path fill="#F6BA1E" d="M324,419.8L324,419.8l-4.2,3.1l1.6,5.1c0,0.1,0,0.2,0,0.2c0,0.4-0.3,0.7-0.7,0.7c-0.2,0-0.3-0.1-0.4-0.1
		l0,0l-4.2-3.1l-4.2,3.1c-0.1,0.1-0.3,0.1-0.4,0.1c-0.4,0-0.7-0.3-0.7-0.7c0-0.1,0-0.2,0-0.2l1.6-5.1l-4.2-3.1
		c-0.2-0.1-0.3-0.4-0.3-0.6c0-0.4,0.3-0.7,0.7-0.7l0,0h5.1l1.6-5c0.2-0.4,0.5-0.6,0.8-0.6s0.6,0.2,0.7,0.5l1.6,5h5.1
		c0.4,0,0.7,0.3,0.7,0.7C324.3,419.3,324.2,419.7,324,419.8L324,419.8z"/>
	<path fill="#F6BA1E" d="M342.5,419.8L342.5,419.8l-4.2,3.1l1.6,5.1c0,0.1,0,0.2,0,0.2c0,0.4-0.3,0.7-0.7,0.7
		c-0.2,0-0.3-0.1-0.4-0.1l0,0l-4.2-3.1l-4.2,3.1c-0.1,0-0.2,0.1-0.4,0.1c-0.4,0-0.7-0.3-0.7-0.7c0-0.1,0-0.2,0-0.2l1.6-5.1l-4.4-3.1
		c-0.2-0.1-0.3-0.4-0.3-0.6c0-0.4,0.3-0.7,0.7-0.7l0,0h5.1l1.6-5c0.2-0.4,0.5-0.6,0.8-0.6s0.6,0.2,0.7,0.5l1.6,5h5.1
		c0.4,0,0.7,0.3,0.7,0.7C342.8,419.3,342.7,419.7,342.5,419.8L342.5,419.8z"/>
</g>
</svg>
